<svg width="24" height="24" viewBox="0 0 24 24" fill="none" xmlns="http://www.w3.org/2000/svg">
    <path d="M19.0695 11.8062L19.0688 9.65665C19.0679 6.52091 16.9828 3.86376 14.1267 2.99652L14.1265 2.02331C14.1261 0.908942 13.2193 0.00259839 12.1049 0.00292229C10.9905 0.00324619 10.0842 0.910117 10.0845 2.02448L10.0848 2.99769C7.2292 3.86659 5.14568 6.52491 5.14659 9.66069L5.14722 11.8102C5.14802 14.5646 4.09886 17.1768 2.19303 19.1654C2.00626 19.3603 1.95385 19.6478 2.05982 19.896C2.16579 20.1442 2.4097 20.3053 2.67961 20.3052L8.81029 20.3034C9.12367 21.8389 10.485 22.9975 12.1116 22.9971C13.7382 22.9966 15.0988 21.8372 15.4113 20.3015L21.542 20.2997C21.8119 20.2996 22.0557 20.1385 22.1615 19.8902C22.2673 19.6419 22.2148 19.3544 22.0279 19.1596C20.1209 17.1721 19.0703 14.5606 19.0695 11.8062ZM11.4318 2.02409C11.4317 1.65263 11.7338 1.35034 12.1053 1.35024C12.4768 1.35013 12.779 1.65224 12.7792 2.0237L12.7794 2.73005C12.5576 2.70874 12.3329 2.69748 12.1057 2.69755C11.8784 2.69762 11.6538 2.709 11.432 2.73044L11.4318 2.02409ZM12.1112 21.6498C11.233 21.65 10.484 21.087 10.2057 20.303L14.0159 20.3019C13.7381 21.0861 12.9894 21.6495 12.1112 21.6498ZM4.13117 18.9575C5.66476 16.9005 6.49529 14.4115 6.49453 11.8098L6.49391 9.6603C6.49301 6.56485 9.01063 4.04576 12.1061 4.04486C15.2015 4.04396 17.7206 6.56159 17.7215 9.65704L17.7221 11.8065C17.7229 14.4082 18.5549 16.8967 20.0897 18.9528L4.13117 18.9575Z" fill="#0D2333"/>
</svg>
