<svg width="16" height="16" viewBox="0 0 16 16" fill="none" xmlns="http://www.w3.org/2000/svg">
    <path d="M2.69568 5.82346L1.39899 6.68792C1.24002 6.7939 1.14453 6.97232 1.14453 7.16338V8.57185C1.14453 8.88744 1.40037 9.14328 1.71596 9.14328H13.716C14.0316 9.14328 14.2874 8.88744 14.2874 8.57185V2.85756C14.2874 2.54197 14.0316 2.28613 13.716 2.28613H6.85882C6.54323 2.28613 6.28739 2.54197 6.28739 2.85756V4.00042H3.84211C3.59615 4.00042 3.37778 4.15781 3.3 4.39115L2.92082 5.5287C2.88063 5.64926 2.80141 5.75297 2.69568 5.82346Z" stroke="#86CC7A" stroke-width="1.4"/>
    <path d="M1.14453 8V11.2C1.14453 11.3262 1.24687 11.4286 1.3731 11.4286H14.0588C14.1851 11.4286 14.2874 11.3262 14.2874 11.2V8" stroke="#86CC7A" stroke-width="1.4"/>
    <path d="M6.28564 3.42871V9.50012" stroke="#86CC7A" stroke-width="1.4"/>
    <circle cx="4.00112" cy="13.1427" r="1.17143" stroke="#86CC7A" stroke-width="1.2"/>
    <circle cx="12.0011" cy="13.1427" r="1.17143" stroke="#86CC7A" stroke-width="1.2"/>
</svg>
