<svg width="13" height="9" viewBox="0 0 13 9" fill="none" xmlns="http://www.w3.org/2000/svg">
    <path d="M3.47656 5.15332C4.2627 5.34375 4.53125 5.56348 4.53125 6.00293C4.53125 6.45215 4.18457 6.75977 3.47656 6.81836V5.15332ZM2.98828 3.74707C2.30469 3.56641 2.0166 3.3125 2.0166 2.91699C2.0166 2.5166 2.35352 2.19434 2.98828 2.13086V3.74707ZM3.47656 3.85938V2.13574C4.04297 2.2041 4.42871 2.51172 4.49707 3.05371H5.7959C5.75195 1.88672 4.85352 1.125 3.47656 1.03711V0.246094H2.98828V1.03223C1.62598 1.10547 0.649414 1.86719 0.649414 3.04395C0.649414 4.09863 1.34766 4.66992 2.62695 4.95801L2.98828 5.04102V6.81836C2.2998 6.75488 1.93848 6.4082 1.85547 5.90039H0.551758C0.585938 7.12598 1.59668 7.84863 2.98828 7.91699V8.69824H3.47656V7.91211C4.88281 7.8291 5.89355 7.08691 5.89355 5.85156C5.89355 4.78223 5.19531 4.24512 3.85742 3.94238L3.47656 3.85938ZM9.95117 5.15332C10.7373 5.34375 11.0059 5.56348 11.0059 6.00293C11.0059 6.45215 10.6592 6.75977 9.95117 6.81836V5.15332ZM9.46289 3.74707C8.7793 3.56641 8.49121 3.3125 8.49121 2.91699C8.49121 2.5166 8.82812 2.19434 9.46289 2.13086V3.74707ZM9.95117 3.85938V2.13574C10.5176 2.2041 10.9033 2.51172 10.9717 3.05371H12.2705C12.2266 1.88672 11.3281 1.125 9.95117 1.03711V0.246094H9.46289V1.03223C8.10059 1.10547 7.12402 1.86719 7.12402 3.04395C7.12402 4.09863 7.82227 4.66992 9.10156 4.95801L9.46289 5.04102V6.81836C8.77441 6.75488 8.41309 6.4082 8.33008 5.90039H7.02637C7.06055 7.12598 8.07129 7.84863 9.46289 7.91699V8.69824H9.95117V7.91211C11.3574 7.8291 12.3682 7.08691 12.3682 5.85156C12.3682 4.78223 11.6699 4.24512 10.332 3.94238L9.95117 3.85938Z" fill="#333333"/>
</svg>
