<svg width="20" height="13" viewBox="0 0 20 13" fill="none" xmlns="http://www.w3.org/2000/svg">
    <path d="M1.12515 7.96871L4.07046 10.7265C4.46319 11.0947 4.96425 11.3262 5.49913 11.3867C6.03402 11.4473 6.57415 11.3335 7.03921 11.0625L18.8673 4.18746L17.4142 2.40621C17.0362 1.94454 16.5056 1.6333 15.9181 1.5287C15.3307 1.42411 14.7252 1.53307 14.2111 1.8359L10.7423 3.87496L6.05484 2.31246L4.76577 2.86715C4.66933 2.90848 4.58485 2.97342 4.52011 3.05599C4.45538 3.13856 4.41247 3.2361 4.39534 3.33962C4.37822 3.44313 4.38743 3.5493 4.42213 3.64832C4.45683 3.74733 4.5159 3.83602 4.5939 3.90621L6.99234 6.06246L4.80484 7.31246L2.61734 6.37496L1.30484 6.93746C1.20935 6.97848 1.12559 7.04266 1.06116 7.12419C0.996719 7.20573 0.95363 7.30205 0.935791 7.40443C0.917951 7.50682 0.925924 7.61203 0.958987 7.71056C0.992051 7.80909 1.04916 7.89781 1.12515 7.96871V7.96871Z" stroke="#555555" stroke-width="1.5" stroke-linecap="round" stroke-linejoin="round"/>
</svg>
