<svg width="36" height="36" viewBox="0 0 36 36" fill="none" xmlns="http://www.w3.org/2000/svg">
    <g clip-path="url(#clip0_83_3579)">
        <path d="M23 14.6667C23 13.3407 22.4732 12.0689 21.5355 11.1312C20.5979 10.1935 19.3261 9.66675 18 9.66675C16.6739 9.66675 15.4021 10.1935 14.4645 11.1312C13.5268 12.0689 13 13.3407 13 14.6667C13 20.5001 10.5 22.1667 10.5 22.1667H25.5C25.5 22.1667 23 20.5001 23 14.6667Z" stroke="#333333" stroke-width="2" stroke-linecap="round" stroke-linejoin="round"/>
        <circle cx="23" cy="10.5" r="3.5" fill="#195EC7" stroke="#FCFCFC" stroke-width="2"/>
        <path d="M19.4417 25.5C19.2952 25.7526 19.0849 25.9622 18.8319 26.1079C18.5789 26.2537 18.292 26.3304 18 26.3304C17.708 26.3304 17.4212 26.2537 17.1682 26.1079C16.9151 25.9622 16.7049 25.7526 16.5583 25.5" stroke="#333333" stroke-width="2" stroke-linecap="round" stroke-linejoin="round"/>
    </g>
    <defs>
        <clipPath id="clip0_83_3579">
            <rect width="20" height="20" fill="white" transform="translate(8 8)"/>
        </clipPath>
    </defs>
</svg>
