<svg width="16" height="16" viewBox="0 0 16 16" fill="none" xmlns="http://www.w3.org/2000/svg">
    <path fill-rule="evenodd" clip-rule="evenodd" d="M8.61885 15.4211C8.2718 15.7437 7.73101 15.7407 7.38683 15.415C7.0194 15.0673 6.6671 14.7382 6.33082 14.4241C3.4776 11.7589 1.77783 10.1711 1.77783 7.44947C1.77783 4.23248 4.37043 0.888672 8.00006 0.888672C11.6297 0.888672 14.2223 4.23248 14.2223 7.44947C14.2223 10.2472 12.4261 11.9051 9.42714 14.6732C9.16665 14.9136 8.89709 15.1624 8.61885 15.4211ZM10.2222 7.11087C10.2222 8.33817 9.2273 9.33309 8 9.33309C6.7727 9.33309 5.77778 8.33817 5.77778 7.11087C5.77778 5.88357 6.7727 4.88865 8 4.88865C9.2273 4.88865 10.2222 5.88357 10.2222 7.11087Z" fill="#FEFEFF"/>
</svg>
