<svg width="24" height="25" viewBox="0 0 24 25" fill="none" xmlns="http://www.w3.org/2000/svg">
    <rect x="0.5" y="0.770508" width="23" height="23.6486" stroke="white"/>
    <path fill-rule="evenodd" clip-rule="evenodd" d="M15 3.14551C15.053 3.14551 15.1039 3.16717 15.1414 3.20569C15.1789 3.24421 15.2 3.29645 15.2 3.35093V5.40498C15.2 5.45946 15.1789 5.5117 15.1414 5.55022C15.1039 5.58875 15.053 5.6104 15 5.6104H9C8.94696 5.6104 8.89609 5.58875 8.85858 5.55022C8.82107 5.5117 8.79999 5.45946 8.79999 5.40498V3.35093C8.79999 3.29645 8.82107 3.24421 8.85858 3.20569C8.89609 3.16717 8.94696 3.14551 9 3.14551H15ZM15 1.29688H9C8.46957 1.29688 7.96089 1.51328 7.58582 1.89849C7.21074 2.2837 7 2.80616 7 3.35093L5 3.35093C4.46957 3.35093 3.96089 3.56734 3.58582 3.95255C3.21074 4.33776 3 4.86021 3 5.40498V21.8374C3 22.3822 3.21074 22.9046 3.58582 23.2899C3.96089 23.6751 4.46957 23.8915 5 23.8915H19C19.5304 23.8915 20.0391 23.6751 20.4142 23.2899C20.7893 22.9046 21 22.3822 21 21.8374V5.40498C21 4.86021 20.7893 4.33776 20.4142 3.95255C20.0391 3.56734 19.5304 3.35093 19 3.35093L17 3.35093C17 2.80616 16.7893 2.2837 16.4142 1.89849C16.0391 1.51328 15.5304 1.29688 15 1.29688ZM5 5.19957H7V5.40498C7 5.94975 7.21074 6.47221 7.58582 6.85742C7.96089 7.24263 8.46957 7.45904 9 7.45904H15C15.5304 7.45904 16.0391 7.24263 16.4142 6.85742C16.7893 6.47221 17 5.94975 17 5.40498V5.19957H19C19.053 5.19957 19.1039 5.22122 19.1414 5.25974C19.1789 5.29826 19.2 5.35051 19.2 5.40498V21.8374C19.2 21.8919 19.1789 21.9441 19.1414 21.9827C19.1039 22.0212 19.053 22.0428 19 22.0428H5C4.94696 22.0428 4.89609 22.0212 4.85858 21.9827C4.82107 21.9441 4.79999 21.8919 4.79999 21.8374V5.40498C4.79999 5.35051 4.82107 5.29826 4.85858 5.25974C4.89609 5.22122 4.94696 5.19957 5 5.19957ZM7 9.51309H17C17.2652 9.51309 17.5196 9.60508 17.7071 9.76879C17.8946 9.93251 18 10.1545 18 10.3861C18 10.6176 17.8946 10.8396 17.7071 11.0033C17.5196 11.1671 17.2652 11.259 17 11.259H7C6.73478 11.259 6.48044 11.1671 6.29291 11.0033C6.10537 10.8396 6 10.6176 6 10.3861C6 10.1545 6.10537 9.93251 6.29291 9.76879C6.48044 9.60508 6.73478 9.51309 7 9.51309ZM7 13.6212H17C17.2652 13.6212 17.5196 13.7132 17.7071 13.8769C17.8946 14.0406 18 14.2626 18 14.4942C18 14.7257 17.8946 14.9477 17.7071 15.1114C17.5196 15.2752 17.2652 15.3671 17 15.3671H7C6.73478 15.3671 6.48044 15.2752 6.29291 15.1114C6.10537 14.9477 6 14.7257 6 14.4942C6 14.2626 6.10537 14.0406 6.29291 13.8769C6.48044 13.7132 6.73478 13.6212 7 13.6212ZM11.7071 17.985C11.5196 17.8213 11.2652 17.7293 11 17.7293H7C6.73478 17.7293 6.48044 17.8213 6.29291 17.985C6.10537 18.1487 6 18.3708 6 18.6023C6 18.8338 6.10537 19.0558 6.29291 19.2196C6.48044 19.3833 6.73478 19.4753 7 19.4753H11C11.2652 19.4753 11.5196 19.3833 11.7071 19.2196C11.8946 19.0558 12 18.8338 12 18.6023C12 18.3708 11.8946 18.1487 11.7071 17.985Z" fill="#666666"/>
</svg>
