<svg width="28" height="28" viewBox="0 0 28 28" fill="none" xmlns="http://www.w3.org/2000/svg">
    <path d="M8 13.75C8 13.3358 8.33579 13 8.75 13H19.25C19.6642 13 20 13.3358 20 13.75C20 14.1642 19.6642 14.5 19.25 14.5H8.75C8.33579 14.5 8 14.1642 8 13.75Z" fill="white"/>
    <path fill-rule="evenodd" clip-rule="evenodd" d="M6.48831 9.24426C6.48823 9.54102 6.24737 9.78157 5.95022 9.78165C5.80748 9.78168 5.67058 9.72508 5.56963 9.6243C5.46869 9.52351 5.41198 9.38681 5.41198 9.24426V7.26617C5.41198 6.12513 6.34121 5.19727 7.4832 5.19727H9.45441C9.74825 5.20196 9.984 5.44116 9.98404 5.73465C9.98408 6.02814 9.74839 6.26741 9.45455 6.27218H7.4832C6.93449 6.27218 6.48831 6.71818 6.48831 7.26617V9.24426ZM18.6491 5.3242H20.5651C21.7071 5.3242 22.6362 6.25207 22.6363 7.3931V9.37119C22.6364 9.51374 22.5797 9.65047 22.4788 9.75126C22.3779 9.85206 22.241 9.90865 22.0982 9.90858C21.9555 9.90869 21.8185 9.85211 21.7176 9.75131C21.6166 9.65051 21.5599 9.51376 21.56 9.37119V7.3931C21.56 6.84525 21.1138 6.39911 20.5651 6.39911H18.6491C18.5063 6.39922 18.3694 6.34264 18.2684 6.24184C18.1674 6.14104 18.1108 6.00429 18.1108 5.86172C18.1108 5.71915 18.1675 5.58241 18.2684 5.48159C18.3694 5.38078 18.5063 5.32416 18.6491 5.3242ZM9.37104 21.5608H7.39984C6.85126 21.5608 6.40495 21.1148 6.40495 20.5668V18.6784C6.40021 18.385 6.16066 18.1496 5.86678 18.1496C5.5729 18.1496 5.33335 18.385 5.32861 18.6784V20.5668C5.32861 21.7079 6.25771 22.6357 7.3997 22.6357H9.37104C9.5138 22.6358 9.65073 22.5792 9.75166 22.4784C9.85259 22.3776 9.90925 22.2408 9.90914 22.0982C9.90921 21.9557 9.85254 21.8189 9.75161 21.7181C9.65068 21.6173 9.51377 21.5608 9.37104 21.5608ZM21.7176 18.2982C21.8185 18.1974 21.9555 18.1409 22.0982 18.141C22.2409 18.1409 22.3778 18.1975 22.4787 18.2983C22.5796 18.3991 22.6363 18.5358 22.6362 18.6783V20.5669C22.6362 21.7079 21.7071 22.6358 20.5651 22.6358H18.6491C18.5063 22.6359 18.3693 22.5793 18.2684 22.4785C18.1674 22.3776 18.1107 22.2408 18.1108 22.0983C18.1108 21.9557 18.1674 21.8189 18.2684 21.7181C18.3694 21.6173 18.5063 21.5607 18.6491 21.5607H20.5651C21.1138 21.5607 21.56 21.1147 21.56 20.5667V18.6783C21.5599 18.5358 21.6166 18.399 21.7176 18.2982Z" fill="white"/>
    <path d="M5.95022 9.78165L5.95015 9.53165H5.95015L5.95022 9.78165ZM6.48831 9.24426L6.73831 9.24432V9.24426H6.48831ZM5.41198 9.24426H5.66198H5.41198ZM9.45441 5.19727L9.4584 4.94727H9.45441V5.19727ZM9.98404 5.73465L10.234 5.73462L9.98404 5.73465ZM9.45455 6.27218V6.52221L9.4586 6.52214L9.45455 6.27218ZM18.6491 5.3242L18.649 5.5742H18.6491V5.3242ZM22.6363 7.3931H22.8863V7.39307L22.6363 7.3931ZM22.6363 9.37119H22.3863V9.37132L22.6363 9.37119ZM22.0982 9.90858L22.0984 9.65858L22.098 9.65858L22.0982 9.90858ZM21.7176 9.75131L21.8942 9.57439L21.8942 9.57439L21.7176 9.75131ZM21.56 9.37119L21.81 9.37132V9.37119H21.56ZM18.6491 6.39911V6.14911L18.6489 6.14911L18.6491 6.39911ZM18.1108 5.86172L18.3608 5.86185V5.86166L18.1108 5.86172ZM18.2684 5.48159L18.4451 5.65849V5.65849L18.2684 5.48159ZM9.37104 21.5608V21.8108H9.37117L9.37104 21.5608ZM6.40495 18.6784H6.65498L6.65491 18.6744L6.40495 18.6784ZM5.32861 18.6784L5.07861 18.6744V18.6784H5.32861ZM9.37104 22.6357L9.37117 22.3857H9.37104V22.6357ZM9.75166 22.4784L9.57498 22.3015H9.57498L9.75166 22.4784ZM9.90914 22.0982L9.65914 22.0981V22.0984L9.90914 22.0982ZM22.0982 18.141L22.098 18.391H22.0983L22.0982 18.141ZM22.4787 18.2983L22.6554 18.1215H22.6554L22.4787 18.2983ZM22.6362 18.6783L22.3862 18.6782V18.6783H22.6362ZM18.6491 22.6358V22.3858H18.6489L18.6491 22.6358ZM18.2684 22.4785L18.445 22.3016H18.445L18.2684 22.4785ZM18.1108 22.0983L18.3608 22.0984V22.0981L18.1108 22.0983ZM18.2684 21.7181L18.4451 21.895L18.4451 21.895L18.2684 21.7181ZM18.6491 21.5607L18.6489 21.8107H18.6491V21.5607ZM21.56 18.6783H21.81V18.6782L21.56 18.6783ZM5.95028 10.0316C6.38514 10.0315 6.7382 9.67941 6.73831 9.24432L6.23831 9.24419C6.23827 9.40262 6.10959 9.5316 5.95015 9.53165L5.95028 10.0316ZM5.393 9.80121C5.54086 9.94885 5.74133 10.0317 5.95028 10.0316L5.95015 9.53165C5.87362 9.53167 5.80029 9.50132 5.74627 9.44738L5.393 9.80121ZM5.16198 9.24426C5.16198 9.45323 5.24512 9.65357 5.393 9.80121L5.74627 9.44738C5.69226 9.39346 5.66198 9.32039 5.66198 9.24426H5.16198ZM5.16198 7.26617V9.24426H5.66198V7.26617H5.16198ZM7.4832 4.94727C6.20343 4.94727 5.16198 5.98677 5.16198 7.26617H5.66198C5.66198 6.2635 6.479 5.44727 7.4832 5.44727V4.94727ZM9.45441 4.94727H7.4832V5.44727H9.45441V4.94727ZM10.234 5.73462C10.234 5.30432 9.88842 4.95416 9.4584 4.9473L9.45042 5.44723C9.60808 5.44975 9.73402 5.578 9.73404 5.73468L10.234 5.73462ZM9.4586 6.52214C9.88862 6.51517 10.2341 6.16492 10.234 5.73462L9.73404 5.73468C9.73406 5.89137 9.60815 6.01965 9.45049 6.02221L9.4586 6.52214ZM7.4832 6.52218H9.45455V6.02218H7.4832V6.52218ZM6.73831 7.26617C6.73831 6.85643 7.07239 6.52218 7.4832 6.52218V6.02218C6.79659 6.02218 6.23831 6.57994 6.23831 7.26617H6.73831ZM6.73831 9.24426V7.26617H6.23831V9.24426H6.73831ZM20.5651 5.0742H18.6491V5.5742H20.5651V5.0742ZM22.8863 7.39307C22.8862 6.11373 21.8449 5.0742 20.5651 5.0742V5.5742C21.5693 5.5742 22.3862 6.3904 22.3863 7.39313L22.8863 7.39307ZM22.8863 9.37119V7.3931H22.3863V9.37119H22.8863ZM22.6555 9.92815C22.8033 9.78047 22.8864 9.58006 22.8863 9.37106L22.3863 9.37132C22.3864 9.44741 22.3561 9.52046 22.3021 9.57437L22.6555 9.92815ZM22.0981 10.1586C22.3071 10.1587 22.5076 10.0758 22.6555 9.92815L22.3021 9.57437C22.2481 9.62828 22.1748 9.65862 22.0984 9.65858L22.0981 10.1586ZM21.5409 9.92823C21.6888 10.0759 21.8894 10.1587 22.0984 10.1586L22.098 9.65858C22.0215 9.65864 21.9482 9.62831 21.8942 9.57439L21.5409 9.92823ZM21.31 9.37106C21.3099 9.5801 21.393 9.78053 21.5409 9.92823L21.8942 9.57439C21.8402 9.52049 21.8099 9.44742 21.81 9.37132L21.31 9.37106ZM21.31 7.3931V9.37119H21.81V7.3931H21.31ZM20.5651 6.64911C20.9759 6.64911 21.31 6.98348 21.31 7.3931H21.81C21.81 6.70703 21.2517 6.14911 20.5651 6.14911V6.64911ZM18.6491 6.64911H20.5651V6.14911H18.6491V6.64911ZM18.0918 6.41876C18.2397 6.56644 18.4403 6.64927 18.6493 6.64911L18.6489 6.14911C18.5724 6.14917 18.499 6.11884 18.445 6.06493L18.0918 6.41876ZM17.8608 5.86159C17.8607 6.07063 17.9438 6.27107 18.0918 6.41876L18.445 6.06493C18.3911 6.01102 18.3608 5.93795 18.3608 5.86185L17.8608 5.86159ZM18.0918 5.3047C17.9439 5.45239 17.8608 5.65278 17.8608 5.86179L18.3608 5.86166C18.3608 5.78552 18.3911 5.71242 18.4451 5.65849L18.0918 5.3047ZM18.6491 5.0742C18.4402 5.07414 18.2397 5.15702 18.0918 5.3047L18.4451 5.65849C18.4991 5.60454 18.5725 5.57418 18.649 5.5742L18.6491 5.0742ZM7.39984 21.8108H9.37104V21.3108H7.39984V21.8108ZM6.15495 20.5668C6.15495 21.2531 6.71339 21.8108 7.39984 21.8108V21.3108C6.98914 21.3108 6.65495 20.9766 6.65495 20.5668H6.15495ZM6.15495 18.6784V20.5668H6.65495V18.6784H6.15495ZM5.86678 18.3996C6.02446 18.3996 6.15245 18.5258 6.15498 18.6825L6.65491 18.6744C6.64797 18.2442 6.29685 17.8996 5.86678 17.8996V18.3996ZM5.57858 18.6825C5.58111 18.5258 5.70909 18.3996 5.86678 18.3996V17.8996C5.43671 17.8996 5.08559 18.2442 5.07865 18.6744L5.57858 18.6825ZM5.57861 20.5668V18.6784H5.07861V20.5668H5.57861ZM7.3997 22.3857C6.39551 22.3857 5.57861 21.5695 5.57861 20.5668H5.07861C5.07861 21.8462 6.11991 22.8857 7.3997 22.8857V22.3857ZM9.37104 22.3857H7.3997V22.8857H9.37104V22.3857ZM9.57498 22.3015C9.52099 22.3554 9.44767 22.3858 9.37117 22.3857L9.37091 22.8857C9.57992 22.8858 9.78047 22.803 9.92835 22.6552L9.57498 22.3015ZM9.65914 22.0984C9.65919 22.1745 9.62896 22.2476 9.57498 22.3015L9.92834 22.6552C10.0762 22.5075 10.1593 22.3071 10.1591 22.098L9.65914 22.0984ZM9.57495 21.895C9.62893 21.9489 9.65917 22.022 9.65914 22.0981L10.1591 22.0983C10.1592 21.8893 10.0762 21.6889 9.92827 21.5413L9.57495 21.895ZM9.37117 21.8108C9.44766 21.8108 9.52097 21.8411 9.57495 21.895L9.92827 21.5413C9.7804 21.3936 9.57989 21.3107 9.37091 21.3108L9.37117 21.8108ZM22.0984 17.891C21.8894 17.8908 21.6888 17.9736 21.5409 18.1213L21.8942 18.4751C21.9482 18.4212 22.0215 18.3909 22.098 18.391L22.0984 17.891ZM22.6554 18.1215C22.5076 17.9738 22.3071 17.8909 22.0982 17.891L22.0983 18.391C22.1748 18.3909 22.2481 18.4213 22.302 18.4752L22.6554 18.1215ZM22.8862 18.6785C22.8863 18.4695 22.8032 18.2691 22.6554 18.1215L22.302 18.4752C22.356 18.5291 22.3862 18.6021 22.3862 18.6782L22.8862 18.6785ZM22.8862 20.5669V18.6783H22.3862V20.5669H22.8862ZM20.5651 22.8858C21.8449 22.8858 22.8862 21.8462 22.8862 20.5669H22.3862C22.3862 21.5696 21.5693 22.3858 20.5651 22.3858V22.8858ZM18.6491 22.8858H20.5651V22.3858H18.6491V22.8858ZM18.0917 22.6554C18.2396 22.8031 18.4402 22.8859 18.6493 22.8858L18.6489 22.3858C18.5724 22.3858 18.499 22.3555 18.445 22.3016L18.0917 22.6554ZM17.8608 22.0981C17.8607 22.3071 17.9438 22.5076 18.0917 22.6554L18.445 22.3016C18.391 22.2476 18.3608 22.1746 18.3608 22.0984L17.8608 22.0981ZM18.0917 21.5412C17.9438 21.6889 17.8607 21.8893 17.8608 22.0984L18.3608 22.0981C18.3608 22.022 18.3911 21.9489 18.4451 21.895L18.0917 21.5412ZM18.6492 21.3107C18.4402 21.3106 18.2396 21.3935 18.0917 21.5412L18.4451 21.895C18.4991 21.841 18.5724 21.8107 18.6489 21.8107L18.6492 21.3107ZM20.5651 21.3107H18.6491V21.8107H20.5651V21.3107ZM21.31 20.5667C21.31 20.9765 20.9759 21.3107 20.5651 21.3107V21.8107C21.2517 21.8107 21.81 21.253 21.81 20.5667H21.31ZM21.31 18.6783V20.5667H21.81V18.6783H21.31ZM21.5409 18.1213C21.393 18.269 21.3099 18.4694 21.31 18.6785L21.81 18.6782C21.81 18.6021 21.8402 18.5291 21.8942 18.4751L21.5409 18.1213Z" fill="white"/>
</svg>
