<svg width="16" height="16" viewBox="0 0 16 16" fill="none" xmlns="http://www.w3.org/2000/svg">
    <path d="M14 9.5V13.0455C14 13.1231 13.9847 13.1999 13.955 13.2716C13.9253 13.3433 13.8818 13.4084 13.8269 13.4633C13.7721 13.5182 13.7069 13.5617 13.6352 13.5914C13.5635 13.6211 13.4867 13.6364 13.4091 13.6364H1.59091C1.51331 13.6364 1.43647 13.6211 1.36478 13.5914C1.29309 13.5617 1.22794 13.5182 1.17307 13.4633C1.1182 13.4084 1.07468 13.3433 1.04498 13.2716C1.01528 13.1999 1 13.1231 1 13.0455V9.5C1.31344 9.5 1.61404 9.37549 1.83567 9.15385C2.05731 8.93222 2.18182 8.63162 2.18182 8.31818C2.18182 8.00474 2.05731 7.70414 1.83567 7.48251C1.61404 7.26088 1.31344 7.13636 1 7.13636V3.59091C1 3.51331 1.01528 3.43647 1.04498 3.36478C1.07468 3.29309 1.1182 3.22794 1.17307 3.17307C1.22794 3.1182 1.29309 3.07468 1.36478 3.04498C1.43647 3.01528 1.51331 3 1.59091 3H13.4091C13.4867 3 13.5635 3.01528 13.6352 3.04498C13.7069 3.07468 13.7721 3.1182 13.8269 3.17307C13.8818 3.22794 13.9253 3.29309 13.955 3.36478C13.9847 3.43647 14 3.51331 14 3.59091V7.13636C13.6866 7.13636 13.386 7.26088 13.1643 7.48251C12.9427 7.70414 12.8182 8.00474 12.8182 8.31818C12.8182 8.63162 12.9427 8.93222 13.1643 9.15385C13.386 9.37549 13.6866 9.5 14 9.5ZM12.8182 10.0909C12.284 9.79545 11.6364 9.34814 11.6364 8.31818C11.6364 7.28823 12.284 6.84091 12.8182 6.54545V4.18182H2.18182V6.54545C2.77273 6.84091 3.36364 7.35145 3.36364 8.31818C3.36364 9.28491 2.77273 9.79545 2.18182 10.0909V12.4545H12.8182V10.0909ZM5.13636 5.95455H6.31818V10.6818H5.13636V5.95455Z" fill="#FF5D5D"/>
</svg>
